<svg version="1.2" xmlns="http://www.w3.org/2000/svg" viewBox="0 0 171 164" width="32" height="32">
	<style>
		.s0 { fill: none;stroke: #0d93f2;stroke-linejoin: round;stroke-width: 10 } 
		.s1 { fill: #0d93f2 } 
	</style>
	<path id="Camada 2" fill-rule="evenodd" class="s0" d="m53 15h64c19.33 0 35 15.67 35 35v64c0 19.33-15.67 35-35 35h-64c-19.33 0-35-15.67-35-35v-64c0-19.33 15.67-35 35-35z"/>
	<path id="Forma 1" class="s1" d="m33.44 135.09l28.17-18.98h5.08c0 0 8.4 9.16 20.32 9.15 1.65 0.02 14.26-0.45 32.53-20.33 0.79-0.57 12.89-11.77 17.28-13.21 0.83 0.06 4.13-0.72 11.18 8.13 0.01-1.35 0-15.24 0-15.24 0 0-13.9-7.56-22.36 1.01-2.59 2.8-29.27 25.32-33.54 28.46-1.98 0.3-10.37 3.67-22.36-8.13-1.7-0.01-10.15-2.66-18.3 4.07-3.16 2.4-23.37 16.26-23.37 16.26l-4.07 3.05 5.08 7.11z"/>
	<path id="Camada 3" fill-rule="evenodd" class="s0" d="m64.5 66c-6.91 0-12.5-5.59-12.5-12.5 0-6.91 5.59-12.5 12.5-12.5 6.91 0 12.5 5.59 12.5 12.5 0 6.91-5.59 12.5-12.5 12.5z"/>
</svg>